<?xml version="1.0" encoding="utf-8"?>

<svg viewBox="0 -0.5 25 25" xmlns="http://www.w3.org/2000/svg">
    <path d="M 13.2942 7.9588 L 13.2942 7.9588 Z M 6.811 14.8488 L 7.379 15.3385 C 7.3849 15.3317 7.3906 15.3248 7.3962 15.3178 L 6.811 14.8488 Z M 6.64 15.2668 L 5.8915 15.2179 L 5.8908 15.2321 L 6.64 15.2668 Z M 6.5 18.2898 L 5.7508 18.2551 C 5.7491 18.2923 5.7501 18.3296 5.754 18.3667 L 6.5 18.2898 Z M 7.287 18.9768 L 7.3115 19.7264 C 7.3615 19.7247 7.4113 19.7181 7.46 19.7065 L 7.287 18.9768 Z M 10.287 18.2658 L 10.46 18.9956 L 10.4716 18.9927 L 10.287 18.2658 Z M 10.672 18.0218 L 11.2506 18.4991 L 11.2571 18.491 L 10.672 18.0218 Z M 17.2971 10.959 L 17.2971 10.959 Z M 12.1269 7.0205 L 12.1269 7.0205 Z M 14.3 5.5098 L 14.8851 5.979 C 14.8949 5.9667 14.9044 5.9541 14.9135 5.9412 L 14.3 5.5098 Z M 15.929 5.1898 L 16.4088 4.6133 C 16.3849 4.5934 16.3598 4.5751 16.3337 4.5583 L 15.929 5.1898 Z M 18.166 7.0518 L 18.6968 6.5219 C 18.6805 6.5056 18.6635 6.4901 18.6458 6.4753 L 18.166 7.0518 Z M 18.5029 7.8726 L 19.2529 7.8768 V 7.8768 L 18.5029 7.8726 Z M 18.157 8.6898 L 17.632 8.1541 C 17.6108 8.175 17.5908 8.197 17.5721 8.2203 Z M 16.1271 10.0203 L 16.1271 10.0203 Z M 13.4537 7.3786 L 13.4537 7.3786 Z M 16.813 11.2329 L 16.813 11.2329 Z M 12.1238 7.0207 L 6.2258 14.3797 L 7.3962 15.3178 L 13.2942 7.9588 Z M 6.243 14.359 C 6.0356 14.5995 5.9123 14.9011 5.8916 15.218 L 7.3884 15.3156 C 7.3879 15.324 7.3846 15.3321 7.379 15.3385 L 6.243 14.359 Z M 5.8908 15.2321 L 5.7508 18.2551 L 7.2492 18.3245 L 7.3892 15.3015 L 5.8908 15.2321 Z M 5.754 18.3667 C 5.8356 19.1586 6.5159 19.7524 7.3115 19.7264 L 7.2625 18.2272 C 7.2593 18.2273 7.2577 18.2268 7.2567 18.2264 C 7.2553 18.2259 7.2534 18.2249 7.2514 18.2232 C 7.2495 18.2215 7.2482 18.2198 7.2475 18.2185 C 7.247 18.2175 7.2464 18.216 7.246 18.2128 L 5.754 18.3667 Z M 7.46 19.7065 L 10.46 18.9955 L 10.114 17.536 L 7.114 18.247 L 7.46 19.7065 Z M 10.4716 18.9927 C 10.7771 18.9151 11.05 18.7422 11.2506 18.499 L 10.0934 17.5445 C 10.0958 17.5417 10.0989 17.5397 10.1024 17.5388 L 10.4716 18.9927 Z M 11.2571 18.491 L 17.2971 10.959 L 16.1269 10.0206 L 10.0869 17.5526 L 11.2571 18.491 Z M 13.2971 7.959 L 14.8851 5.979 L 13.7149 5.0405 L 12.1269 7.0205 Z M 14.9135 5.9412 C 15.0521 5.7441 15.3214 5.6912 15.5243 5.8212 L 16.3337 4.5583 C 15.4544 3.9948 14.2873 4.2241 13.6865 5.0783 L 14.9135 5.9412 Z M 15.4492 5.7662 L 17.6862 7.6282 L 18.6458 6.4753 L 16.4088 4.6133 L 15.4492 5.7662 Z M 17.6352 7.5816 C 17.7111 7.6577 17.7535 7.761 17.7529 7.8685 L 19.2529 7.8768 C 19.2557 7.369 19.0555 6.8813 18.6968 6.5219 L 17.6352 7.5816 Z M 17.7529 7.8685 C 17.7524 7.976 17.7088 8.0789 17.632 8.1541 L 18.682 9.2254 C 19.0446 8.87 19.2501 8.3845 19.2529 7.8768 L 17.7529 7.8685 Z M 17.5721 8.2203 L 16.1271 10.0203 L 17.2969 10.9593 L 18.7419 9.1593 L 17.5721 8.2203 Z M 11.9703 7.6009 C 12.3196 9.9322 14.4771 11.5503 16.813 11.2329 L 16.611 9.7466 C 15.0881 9.9535 13.6815 8.8986 13.4537 7.3786 Z"/>
</svg>
